<svg xmlns="http://www.w3.org/2000/svg" xmlns:xlink="http://www.w3.org/1999/xlink" width="150mm" height="75mm" viewBox="0 0 150 75"><defs><linearGradient id="a"><stop offset="0" stop-color="#80e5ff"/><stop offset="1" stop-color="#08a"/></linearGradient><linearGradient xlink:href="#a" id="b" x1="444.52" y1="452.61" x2="232.113" y2="631.407" gradientUnits="userSpaceOnUse" gradientTransform="matrix(.52895 .06811 0 .52779 -76.844 -171.843)"/></defs><g style="line-height:1.25"><path style="-inkscape-font-specification:'Voice In My Head'" d="M173.103 113.174l-60.713-.017v21.451l12.9.003v-8.58l16.682.005-37.173 37.608V113.15l-17.2-.004v.042l-6.105-.001v-.042L66.1 113.14v12.87l3.612.002-12.211 21.533-19.478-34.37-14.92-.004 34.398 60.117 30.098-52.585v5.315l4.3.001v42.903h7.685l-.075.076 60.713.017v-21.452l-12.9-.003v8.58l-16.683-.004z" font-family="Voice In My Head" fill="url(#b)" transform="matrix(1 -.12877 0 1 -23.103 -90.884)" aria-label="VIZ" font-weight="400" font-size="44.047" letter-spacing="0" word-spacing="0" stroke-width="1.101"/></g></svg>